# xmcd
#
# Track frame offsets:
# 150
# 17967
# 37791
# 59233
# 74423
# 92505
# 108730
# 126365
# 145348
# 161336
# 178793
# 205486
#
# Disc length: 2964 seconds
#
# Revision: 1
# Processed by: cddbd v1.5.1PL2 Copyright (c) Steve Scherf et al.
# Submitted via: CedeCatalogueitor 2.6.0.6 http://personales.ya.com/cdcatalogueitor
#
DISCID=b40b920c
DTITLE=KENNY CHESNEY - NO SHOES.SO SHIRT,NO PROBLEMS
DYEAR=1900
DGENRE=
TTITLE0=Young
TTITLE1=Remember
TTITLE2=A Lot Of Things Different
TTITLE3=The Good Stuff
TTITLE4=Big Star
TTITLE5=On The Coast Of Somewhere Beautiful
TTITLE6=Never Gonna Feel That Way Again
TTITLE7=Dreams
TTITLE8=No Shoes,No Shirt, No Problems
TTITLE9=Live Those Songs
TTITLE10=One Step Up
TTITLE11=I Can´t Go There
EXTD=
EXTT0=
EXTT1=
EXTT2=
EXTT3=
EXTT4=
EXTT5=
EXTT6=
EXTT7=
EXTT8=
EXTT9=
EXTT10=
EXTT11=
PLAYORDER=
